<svg xmlns="http://www.w3.org/2000/svg" id="Livello_1" viewBox="0 0 52 80" class="logo-icona">
  <path id="sotto" d="M28.3 65.7L21.7 74l3 6s.2.2.2 0l2-.8c3.5-2 5-6.4 3-10-.6-1.3-1-2.4-1.8-3.5z"/>
  <path id="sinistra" d="M22.5 54.2L12 33.6c.4 2-.8 4.5-3 5.5-2 1-4.4.7-6-1l18 34 6.3-8.2-4.8-9.5z"/>
  <path id="destra" d="M49 14.7L40.6 19c2.4 5.8.7 12-5 18.6L23.6 53l5 9.7c2-2.6 12-15.6 13.4-17 9.2-11 11.7-21.5 7-31z"/>
  <path id="sopra" d="M45.4 9.4C36.2-1.6 19.8-3.2 8.8 6-.4 13.7-2 25 2.2 36.3c0-2 .2-4.3 3-5.6C8.5 29 10.8 32 10.8 32c-3-7.5-2-14.3 4-19.3 7-5.8 17.2-5 23 2 .7 1 1.3 1.7 1.8 2.6L48 13c-.7-1.2-1.6-2.4-2.6-3.6z"/>
</svg>
