<svg xmlns="http://www.w3.org/2000/svg" id="Livello_1" viewBox="0 0 170 260">
  <path id="sotto" d="M93.6 211.2s-.3-.2-.4 0l-20.4 26v.4l10 19h.2l6-3c11.5-6 16-20 10-31.7l-5.3-11z"/>
  <path id="sinistra" d="M75 175c-.2 0-32.5-63.5-33.3-65 1.3 6.7-2.7 14-9 17.4-6.6 3.3-14.3 1.7-19-3.4 2 4.2 56.2 108 56.2 108l20-26.5L75 175z"/>
  <path id="destra" d="M159 49.8l-26.7 13.5c7.6 18.3 2.2 38-15.4 59-8.5 9.5-30 37.8-38.7 49L94 201.6c6.3-8.2 38.7-49.4 42.4-53.8 29.4-35 37.4-68 22.5-98.2z"/>
  <path id="sopra" d="M147.6 33c-29-35-81-39.6-116-10.5C2.6 46.7-2.6 82 10.8 118.3c-.3-6 .7-13.6 9-17.8 11.2-5.5 18.5 4 18.5 4-9.3-23.6-6-45 12.7-60.8 22-18.3 54.8-15.4 73 6.7 2.2 2.6 4 5.2 5.6 7.8L156 45c-2.4-4-5.2-8-8.4-12z"/>
</svg>
