<svg xmlns="http://www.w3.org/2000/svg" id="Livello_1" xmlns:xlink="http://www.w3.org/1999/xlink" viewBox="0 0 410 410" class="twitter">
  <style>
    .st0{clip-path:url(#SVGID_2_);}
  </style>
  <defs>
    <path id="SVGID_1_" d="M75.4 115h259.2v180H75.4z"/>
  </defs>
  <clipPath id="SVGID_2_">
    <use xlink:href="#SVGID_1_" overflow="visible"/>
  </clipPath>
  <path d="M305.2 194.4c14.6-1.2 24.4-7.8 28.2-16.8-5.2 3.2-21.5 6.7-30.6 3.4l-1.4-6c-7-25-30.3-45.4-55-43 2-.7 4-1.5 6-2 2.7-1 18.6-3.7 16-9.3-2-5-21.4 3.7-25 5 4.7-2 12.7-5 13.6-10.6-7.4 1-14.6 5-20.2 10 2-2 3.6-5 4-7.5-19.8 12.7-31.3 38-40.7 62.7-7-7-13.2-12.7-19-16-16.3-9-36-18-66.5-29.2-1 10.2 5 23.6 22.3 32.6-3.7-.4-10.5.7-16 2 2.2 11.6 9.4 21.2 29 25.8-9 .8-13.6 2.8-17.8 7 4 8 14 17.8 32 15.8-20 8.6-8.3 24.5 8 22-27.7 28.6-71 26.5-96 2.7 65 89 207 52.6 228-33 15.8 0 25-5.6 31-11.8-9 1.6-22.3 0-29.4-3zm0 0"/>
</svg>
